<?xml version="1.0" encoding="UTF-8"?>
<!DOCTYPE svg PUBLIC "-//W3C//DTD SVG 1.1//EN" "http://www.w3.org/Graphics/SVG/1.1/DTD/svg11.dtd">
<!-- Creator: CorelDRAW 2018 (64-Bit) -->
<svg xmlns="http://www.w3.org/2000/svg" xml:space="preserve" width="84.1496mm" height="24.8266mm" version="1.1" style="shape-rendering:geometricPrecision; text-rendering:geometricPrecision; image-rendering:optimizeQuality; fill-rule:evenodd; clip-rule:evenodd"
viewBox="0 0 2869.7 846.65"
 xmlns:xlink="http://www.w3.org/1999/xlink">
 <defs>
  <style type="text/css">
   <![CDATA[
    .fil2 {fill:none;fill-rule:nonzero}
    .fil1 {fill:#6551E4}
    .fil0 {fill:#7C6BEF;fill-rule:nonzero}
   ]]>
  </style>
   <clipPath id="id0" style="clip-rule:nonzero">
    <path d="M-0 19.88c17.93,-3.12 37.23,-6.04 57.89,-8.77 20.66,-2.73 41.32,-4.87 61.98,-6.43 20.66,-1.56 40.73,-2.73 60.22,-3.51 19.49,-0.78 37.42,-1.17 53.79,-1.17 38.2,0 75.82,3.51 112.85,10.53 37.03,7.01 70.16,19.1 99.4,36.25 29.24,17.15 52.62,40.73 70.16,70.75 17.54,30.01 26.31,67.63 26.31,112.84 0,67.05 -15.59,121.62 -46.78,163.72 -31.18,42.1 -72.89,71.34 -125.13,87.7l57.3 36.25 187.1 312.23 -184.76 0 -185.94 -320.42 -84.2 -15.2 0 335.62 -160.21 0 0 -810.39zm1510.86 472.44l22.34 71.76 29.24 -76.89 155.41 -475.5 168.39 0 -304.04 824.43 -114.6 0 -306.38 -824.43 185.93 0 163.72 480.63zm-1265.29 -349.65c-16.37,0 -32.55,0.39 -48.53,1.17 -15.98,0.78 -28.26,2.34 -36.83,4.68l0 237.39 67.83 0c44.44,0 79.91,-10.14 106.41,-30.41 26.51,-20.27 39.76,-53.79 39.76,-100.57 0,-35.08 -10.91,-62.56 -32.74,-82.44 -21.83,-19.88 -53.79,-29.82 -95.89,-29.82zm866.53 637.32c-23.39,18.71 -55.16,34.5 -95.31,47.36 -40.15,12.86 -82.83,19.3 -128.05,19.3 -94.33,0 -163.33,-27.48 -206.98,-82.44 -43.66,-54.96 -65.49,-130.39 -65.49,-226.28 0,-102.91 24.56,-180.09 73.67,-231.54 49.11,-51.45 118.11,-77.18 206.98,-77.18 29.62,0 58.47,3.9 86.53,11.69 28.07,7.8 53.01,20.66 74.84,38.59 21.83,17.93 39.37,42.1 52.62,72.51 13.25,30.4 19.88,68.22 19.88,113.43 0,16.37 -0.97,33.91 -2.92,52.62 -1.95,18.71 -4.87,38.2 -8.77,58.47l-349.65 0c2.34,49.11 15.01,86.15 37.81,111.09 23,24.95 60.03,37.42 111.29,37.42 31.96,0 60.42,-4.87 85.75,-14.62 25.14,-9.75 44.44,-19.68 57.69,-29.82l50.09 99.4zm-216.92 -429.17c-39.57,0 -69,11.89 -87.9,35.66 -18.9,23.78 -30.4,55.55 -34.3,95.31l216.34 0c3.12,-42.1 -3.31,-74.45 -19.1,-97.06 -15.98,-22.61 -40.93,-33.91 -75.04,-33.91zm977.03 -71.34c31.18,-14.03 68.22,-25.14 111.09,-33.33 42.88,-8.18 87.7,-12.28 134.48,-12.28 40.54,0 74.45,4.87 101.74,14.62 27.29,9.75 48.92,23.59 64.9,41.52 15.98,17.93 27.29,39.37 33.91,64.31 6.63,24.95 9.94,53.02 9.94,84.2 0,34.3 -1.17,68.8 -3.51,103.49 -2.34,34.69 -3.7,68.8 -4.09,102.32 -0.39,33.52 0.59,66.07 2.93,97.64 2.34,31.58 8.18,61.39 17.54,89.46l-123.96 0 -24.56 -80.69 -5.85 0c-15.59,24.17 -37.23,45.02 -64.9,62.56 -27.68,17.54 -63.34,26.31 -107,26.31 -27.29,0 -51.84,-4.09 -73.67,-12.28 -21.83,-8.19 -40.54,-19.88 -56.13,-35.08 -15.59,-15.2 -27.67,-33.13 -36.25,-53.79 -8.58,-20.66 -12.86,-43.85 -12.86,-69.58 0,-35.86 7.99,-66.07 23.97,-90.63 15.98,-24.56 38.98,-44.44 69,-59.64 30.01,-15.2 65.88,-25.73 107.59,-31.57 41.71,-5.85 88.29,-7.6 139.74,-5.27 5.46,-43.65 2.34,-75.04 -9.35,-94.14 -11.69,-19.1 -37.81,-28.65 -78.35,-28.65 -30.41,0 -62.56,3.12 -96.48,9.35 -33.91,6.24 -61.78,14.43 -83.61,24.56l-36.25 -113.43zm192.95 435.02c30.4,0 54.57,-6.82 72.5,-20.46 17.93,-13.64 31.18,-28.26 39.76,-43.85l0 -76.01c-24.17,-2.34 -47.36,-2.73 -69.58,-1.17 -22.22,1.56 -41.91,5.07 -59.06,10.52 -17.15,5.46 -30.79,13.26 -40.93,23.39 -10.14,10.13 -15.2,23 -15.2,38.59 0,21.83 6.43,38.78 19.3,50.87 12.86,12.08 30.6,18.13 53.21,18.13zm804.54 79.52c-23.39,17.15 -51.65,30.21 -84.78,39.17 -33.13,8.97 -67.24,13.45 -102.32,13.45 -46.77,0 -86.34,-7.41 -118.69,-22.22 -32.35,-14.81 -58.67,-35.66 -78.94,-62.56 -20.27,-26.9 -34.89,-59.44 -43.85,-97.65 -8.97,-38.2 -13.45,-80.3 -13.45,-126.29 0,-99.01 22.22,-175.21 66.66,-228.62 44.44,-53.4 109.14,-80.1 194.12,-80.1 42.88,0 77.38,3.51 103.49,10.52 26.12,7.02 49.7,15.98 70.75,26.9l-36.25 123.96c-17.93,-8.58 -35.67,-15.2 -53.21,-19.88 -17.54,-4.68 -37.61,-7.01 -60.22,-7.01 -42.1,0 -74.06,13.84 -95.89,41.51 -21.83,27.67 -32.74,71.92 -32.74,132.73 0,24.95 2.73,47.94 8.18,69 5.46,21.05 13.64,39.37 24.56,54.96 10.92,15.59 25.14,27.87 42.68,36.84 17.54,8.97 38.01,13.45 61.39,13.45 25.73,0 47.56,-3.31 65.49,-9.94 17.93,-6.63 33.91,-14.62 47.94,-23.97l35.08 115.77z"/>
   </clipPath>
 </defs>
 <g id="Слой_x0020_1">
  <metadata id="CorelCorpID_0Corel-Layer"/>
  <path class="fil0" d="M-0 19.88c17.93,-3.12 37.23,-6.04 57.89,-8.77 20.66,-2.73 41.32,-4.87 61.98,-6.43 20.66,-1.56 40.73,-2.73 60.22,-3.51 19.49,-0.78 37.42,-1.17 53.79,-1.17 38.2,0 75.82,3.51 112.85,10.53 37.03,7.01 70.16,19.1 99.4,36.25 29.24,17.15 52.62,40.73 70.16,70.75 17.54,30.01 26.31,67.63 26.31,112.84 0,67.05 -15.59,121.62 -46.78,163.72 -31.18,42.1 -72.89,71.34 -125.13,87.7l57.3 36.25 187.1 312.23 -184.76 0 -185.94 -320.42 -84.2 -15.2 0 335.62 -160.21 0 0 -810.39zm1510.86 472.44l22.34 71.76 29.24 -76.89 155.41 -475.5 168.39 0 -304.04 824.43 -114.6 0 -306.38 -824.43 185.93 0 163.72 480.63zm-1265.29 -349.65c-16.37,0 -32.55,0.39 -48.53,1.17 -15.98,0.78 -28.26,2.34 -36.83,4.68l0 237.39 67.83 0c44.44,0 79.91,-10.14 106.41,-30.41 26.51,-20.27 39.76,-53.79 39.76,-100.57 0,-35.08 -10.91,-62.56 -32.74,-82.44 -21.83,-19.88 -53.79,-29.82 -95.89,-29.82zm866.53 637.32c-23.39,18.71 -55.16,34.5 -95.31,47.36 -40.15,12.86 -82.83,19.3 -128.05,19.3 -94.33,0 -163.33,-27.48 -206.98,-82.44 -43.66,-54.96 -65.49,-130.39 -65.49,-226.28 0,-102.91 24.56,-180.09 73.67,-231.54 49.11,-51.45 118.11,-77.18 206.98,-77.18 29.62,0 58.47,3.9 86.53,11.69 28.07,7.8 53.01,20.66 74.84,38.59 21.83,17.93 39.37,42.1 52.62,72.51 13.25,30.4 19.88,68.22 19.88,113.43 0,16.37 -0.97,33.91 -2.92,52.62 -1.95,18.71 -4.87,38.2 -8.77,58.47l-349.65 0c2.34,49.11 15.01,86.15 37.81,111.09 23,24.95 60.03,37.42 111.29,37.42 31.96,0 60.42,-4.87 85.75,-14.62 25.14,-9.75 44.44,-19.68 57.69,-29.82l50.09 99.4zm-216.92 -429.17c-39.57,0 -69,11.89 -87.9,35.66 -18.9,23.78 -30.4,55.55 -34.3,95.31l216.34 0c3.12,-42.1 -3.31,-74.45 -19.1,-97.06 -15.98,-22.61 -40.93,-33.91 -75.04,-33.91zm977.03 -71.34c31.18,-14.03 68.22,-25.14 111.09,-33.33 42.88,-8.18 87.7,-12.28 134.48,-12.28 40.54,0 74.45,4.87 101.74,14.62 27.29,9.75 48.92,23.59 64.9,41.52 15.98,17.93 27.29,39.37 33.91,64.31 6.63,24.95 9.94,53.02 9.94,84.2 0,34.3 -1.17,68.8 -3.51,103.49 -2.34,34.69 -3.7,68.8 -4.09,102.32 -0.39,33.52 0.59,66.07 2.93,97.64 2.34,31.58 8.18,61.39 17.54,89.46l-123.96 0 -24.56 -80.69 -5.85 0c-15.59,24.17 -37.23,45.02 -64.9,62.56 -27.68,17.54 -63.34,26.31 -107,26.31 -27.29,0 -51.84,-4.09 -73.67,-12.28 -21.83,-8.19 -40.54,-19.88 -56.13,-35.08 -15.59,-15.2 -27.67,-33.13 -36.25,-53.79 -8.58,-20.66 -12.86,-43.85 -12.86,-69.58 0,-35.86 7.99,-66.07 23.97,-90.63 15.98,-24.56 38.98,-44.44 69,-59.64 30.01,-15.2 65.88,-25.73 107.59,-31.57 41.71,-5.85 88.29,-7.6 139.74,-5.27 5.46,-43.65 2.34,-75.04 -9.35,-94.14 -11.69,-19.1 -37.81,-28.65 -78.35,-28.65 -30.41,0 -62.56,3.12 -96.48,9.35 -33.91,6.24 -61.78,14.43 -83.61,24.56l-36.25 -113.43zm192.95 435.02c30.4,0 54.57,-6.82 72.5,-20.46 17.93,-13.64 31.18,-28.26 39.76,-43.85l0 -76.01c-24.17,-2.34 -47.36,-2.73 -69.58,-1.17 -22.22,1.56 -41.91,5.07 -59.06,10.52 -17.15,5.46 -30.79,13.26 -40.93,23.39 -10.14,10.13 -15.2,23 -15.2,38.59 0,21.83 6.43,38.78 19.3,50.87 12.86,12.08 30.6,18.13 53.21,18.13zm804.54 79.52c-23.39,17.15 -51.65,30.21 -84.78,39.17 -33.13,8.97 -67.24,13.45 -102.32,13.45 -46.77,0 -86.34,-7.41 -118.69,-22.22 -32.35,-14.81 -58.67,-35.66 -78.94,-62.56 -20.27,-26.9 -34.89,-59.44 -43.85,-97.65 -8.97,-38.2 -13.45,-80.3 -13.45,-126.29 0,-99.01 22.22,-175.21 66.66,-228.62 44.44,-53.4 109.14,-80.1 194.12,-80.1 42.88,0 77.38,3.51 103.49,10.52 26.12,7.02 49.7,15.98 70.75,26.9l-36.25 123.96c-17.93,-8.58 -35.67,-15.2 -53.21,-19.88 -17.54,-4.68 -37.61,-7.01 -60.22,-7.01 -42.1,0 -74.06,13.84 -95.89,41.51 -21.83,27.67 -32.74,71.92 -32.74,132.73 0,24.95 2.73,47.94 8.18,69 5.46,21.05 13.64,39.37 24.56,54.96 10.92,15.59 25.14,27.87 42.68,36.84 17.54,8.97 38.01,13.45 61.39,13.45 25.73,0 47.56,-3.31 65.49,-9.94 17.93,-6.63 33.91,-14.62 47.94,-23.97l35.08 115.77z"/>
  <g style="clip-path:url(#id0)">
   <g id="_2950630272288">
    <ellipse class="fil1" cx="1435.78" cy="1630.58" rx="2800.72" ry="1206.67"/>
   </g>
  </g>
  <path class="fil2" d="M-0 19.88c17.93,-3.12 37.23,-6.04 57.89,-8.77 20.66,-2.73 41.32,-4.87 61.98,-6.43 20.66,-1.56 40.73,-2.73 60.22,-3.51 19.49,-0.78 37.42,-1.17 53.79,-1.17 38.2,0 75.82,3.51 112.85,10.53 37.03,7.01 70.16,19.1 99.4,36.25 29.24,17.15 52.62,40.73 70.16,70.75 17.54,30.01 26.31,67.63 26.31,112.84 0,67.05 -15.59,121.62 -46.78,163.72 -31.18,42.1 -72.89,71.34 -125.13,87.7l57.3 36.25 187.1 312.23 -184.76 0 -185.94 -320.42 -84.2 -15.2 0 335.62 -160.21 0 0 -810.39zm1510.86 472.44l22.34 71.76 29.24 -76.89 155.41 -475.5 168.39 0 -304.04 824.43 -114.6 0 -306.38 -824.43 185.93 0 163.72 480.63zm-1265.29 -349.65c-16.37,0 -32.55,0.39 -48.53,1.17 -15.98,0.78 -28.26,2.34 -36.83,4.68l0 237.39 67.83 0c44.44,0 79.91,-10.14 106.41,-30.41 26.51,-20.27 39.76,-53.79 39.76,-100.57 0,-35.08 -10.91,-62.56 -32.74,-82.44 -21.83,-19.88 -53.79,-29.82 -95.89,-29.82zm866.53 637.32c-23.39,18.71 -55.16,34.5 -95.31,47.36 -40.15,12.86 -82.83,19.3 -128.05,19.3 -94.33,0 -163.33,-27.48 -206.98,-82.44 -43.66,-54.96 -65.49,-130.39 -65.49,-226.28 0,-102.91 24.56,-180.09 73.67,-231.54 49.11,-51.45 118.11,-77.18 206.98,-77.18 29.62,0 58.47,3.9 86.53,11.69 28.07,7.8 53.01,20.66 74.84,38.59 21.83,17.93 39.37,42.1 52.62,72.51 13.25,30.4 19.88,68.22 19.88,113.43 0,16.37 -0.97,33.91 -2.92,52.62 -1.95,18.71 -4.87,38.2 -8.77,58.47l-349.65 0c2.34,49.11 15.01,86.15 37.81,111.09 23,24.95 60.03,37.42 111.29,37.42 31.96,0 60.42,-4.87 85.75,-14.62 25.14,-9.75 44.44,-19.68 57.69,-29.82l50.09 99.4zm-216.92 -429.17c-39.57,0 -69,11.89 -87.9,35.66 -18.9,23.78 -30.4,55.55 -34.3,95.31l216.34 0c3.12,-42.1 -3.31,-74.45 -19.1,-97.06 -15.98,-22.61 -40.93,-33.91 -75.04,-33.91zm977.03 -71.34c31.18,-14.03 68.22,-25.14 111.09,-33.33 42.88,-8.18 87.7,-12.28 134.48,-12.28 40.54,0 74.45,4.87 101.74,14.62 27.29,9.75 48.92,23.59 64.9,41.52 15.98,17.93 27.29,39.37 33.91,64.31 6.63,24.95 9.94,53.02 9.94,84.2 0,34.3 -1.17,68.8 -3.51,103.49 -2.34,34.69 -3.7,68.8 -4.09,102.32 -0.39,33.52 0.59,66.07 2.93,97.64 2.34,31.58 8.18,61.39 17.54,89.46l-123.96 0 -24.56 -80.69 -5.85 0c-15.59,24.17 -37.23,45.02 -64.9,62.56 -27.68,17.54 -63.34,26.31 -107,26.31 -27.29,0 -51.84,-4.09 -73.67,-12.28 -21.83,-8.19 -40.54,-19.88 -56.13,-35.08 -15.59,-15.2 -27.67,-33.13 -36.25,-53.79 -8.58,-20.66 -12.86,-43.85 -12.86,-69.58 0,-35.86 7.99,-66.07 23.97,-90.63 15.98,-24.56 38.98,-44.44 69,-59.64 30.01,-15.2 65.88,-25.73 107.59,-31.57 41.71,-5.85 88.29,-7.6 139.74,-5.27 5.46,-43.65 2.34,-75.04 -9.35,-94.14 -11.69,-19.1 -37.81,-28.65 -78.35,-28.65 -30.41,0 -62.56,3.12 -96.48,9.35 -33.91,6.24 -61.78,14.43 -83.61,24.56l-36.25 -113.43zm192.95 435.02c30.4,0 54.57,-6.82 72.5,-20.46 17.93,-13.64 31.18,-28.26 39.76,-43.85l0 -76.01c-24.17,-2.34 -47.36,-2.73 -69.58,-1.17 -22.22,1.56 -41.91,5.07 -59.06,10.52 -17.15,5.46 -30.79,13.26 -40.93,23.39 -10.14,10.13 -15.2,23 -15.2,38.59 0,21.83 6.43,38.78 19.3,50.87 12.86,12.08 30.6,18.13 53.21,18.13zm804.54 79.52c-23.39,17.15 -51.65,30.21 -84.78,39.17 -33.13,8.97 -67.24,13.45 -102.32,13.45 -46.77,0 -86.34,-7.41 -118.69,-22.22 -32.35,-14.81 -58.67,-35.66 -78.94,-62.56 -20.27,-26.9 -34.89,-59.44 -43.85,-97.65 -8.97,-38.2 -13.45,-80.3 -13.45,-126.29 0,-99.01 22.22,-175.21 66.66,-228.62 44.44,-53.4 109.14,-80.1 194.12,-80.1 42.88,0 77.38,3.51 103.49,10.52 26.12,7.02 49.7,15.98 70.75,26.9l-36.25 123.96c-17.93,-8.58 -35.67,-15.2 -53.21,-19.88 -17.54,-4.68 -37.61,-7.01 -60.22,-7.01 -42.1,0 -74.06,13.84 -95.89,41.51 -21.83,27.67 -32.74,71.92 -32.74,132.73 0,24.95 2.73,47.94 8.18,69 5.46,21.05 13.64,39.37 24.56,54.96 10.92,15.59 25.14,27.87 42.68,36.84 17.54,8.97 38.01,13.45 61.39,13.45 25.73,0 47.56,-3.31 65.49,-9.94 17.93,-6.63 33.91,-14.62 47.94,-23.97l35.08 115.77z"/>
 </g>
</svg>
